<?xml version="1.0" encoding="UTF-8" standalone="no"?>
<!-- Created with Inkscape (http://www.inkscape.org/) -->

<svg
   version="1.1"
   id="svg306"
   width="640"
   height="590.40002"
   viewBox="0 0 640 590.40002"
   sodipodi:docname="Noctura Logo.JPG"
   xmlns:inkscape="http://www.inkscape.org/namespaces/inkscape"
   xmlns:sodipodi="http://sodipodi.sourceforge.net/DTD/sodipodi-0.dtd"
   xmlns="http://www.w3.org/2000/svg"
   xmlns:svg="http://www.w3.org/2000/svg">
  <defs
     id="defs310" />
  <sodipodi:namedview
     id="namedview308"
     pagecolor="#ffffff"
     bordercolor="#000000"
     borderopacity="0.25"
     inkscape:showpageshadow="2"
     inkscape:pageopacity="0.0"
     inkscape:pagecheckerboard="0"
     inkscape:deskcolor="#d1d1d1"
     showgrid="false" />
  <g
     inkscape:groupmode="layer"
     inkscape:label="Image"
     id="g312">
    <path
       style="fill:#000000;stroke-width:0.8"
       d="m 186.8,494.92886 c -4.9078,-1.6256 -7.69444,-3.32148 -11.31757,-6.8876 -4.44078,-4.3709 -6.81477,-9.62872 -7.29453,-16.15568 -0.7739,-10.52846 4.11499,-19.5037 13.4121,-24.62253 4.93698,-2.71822 5.58442,-2.86303 12.8,-2.86303 8.86348,0 13.3502,1.71202 18.81909,7.18091 5.34603,5.34603 7.14738,9.98047 7.15929,18.41909 0.008,6.00216 -0.29781,7.77887 -1.84095,10.67952 -2.79437,5.25264 -7.80447,10.23989 -12.68602,12.62822 -5.2123,2.55014 -13.99131,3.29715 -19.05141,1.6211 z m 13.43819,-11.20968 c 3.29462,-1.37658 7.3132,-5.93584 8.55896,-9.71053 2.10656,-6.38294 -1.51084,-14.65506 -7.70417,-17.61759 -11.68559,-5.5897 -24.58657,5.13107 -21.11129,17.54356 1.09773,3.92068 4.73993,8.13958 8.41831,9.75123 3.13744,1.37464 8.59124,1.39 11.83819,0.0334 z m 51.19064,11.1686 c -4.86155,-1.58909 -10.12268,-4.8573 -12.67238,-7.87208 -11.27971,-13.33712 -6.9025,-32.99316 9.06903,-40.72484 4.23693,-2.05106 12.82295,-2.83476 17.42186,-1.59019 4.58136,1.23982 10.15054,5.14449 12.80902,8.98067 l 2.26545,3.26905 -1.96091,1.48876 c -4.62036,3.50787 -5.2146,3.56959 -8.59454,0.89263 -5.50053,-4.3565 -11.00129,-5.30856 -16.76278,-2.90125 -3.96708,1.65755 -5.75116,3.36323 -7.499,7.16949 -3.4696,7.55574 -0.14121,16.07112 7.69542,19.68796 5.70966,2.63518 11.52926,1.48502 16.72668,-3.3058 l 3.35917,-3.09636 3.4737,2.99177 c 3.01771,2.59904 3.35889,3.20631 2.59904,4.6261 -1.44494,2.69989 -7.3223,7.57025 -11.2117,9.29071 -4.60479,2.03691 -12.29315,2.53974 -16.71806,1.09338 z m 93.65368,-0.31221 c -5.58385,-1.99869 -9.36277,-5.31767 -12.04114,-10.57555 -2.21482,-4.34788 -2.24456,-4.60182 -2.51059,-21.43645 l -0.26922,-17.03644 5.86922,0.23644 5.86922,0.23645 0.4,16 c 0.27161,10.86444 0.72858,16.57509 1.42371,17.79172 1.41079,2.46917 5.08238,4.20828 8.88448,4.20828 4.47538,0 6.80819,-1.07452 8.99778,-4.14445 1.80169,-2.52608 1.91353,-3.43562 2.29403,-18.65555 l 0.4,-16 5.4,-0.23656 5.4,-0.23655 v 16.30941 c 0,18.20005 -0.61408,21.67854 -4.74859,26.89878 -5.24113,6.61747 -16.90418,9.67034 -25.3689,6.64047 z M 104.8,470.49048 c 0,-22.93326 0.10447,-24.80927 1.4,-25.13946 2.95119,-0.75216 7.11221,-0.53599 8.38265,0.43548 0.72898,0.55744 6.05728,6.95352 11.84064,14.21352 5.78337,7.26 10.84405,13.32 11.24597,13.46666 0.4234,0.15451 0.73074,-5.64965 0.73074,-13.8 v -14.06666 h 5.6 5.6 v 24.8 24.8 h -5.04971 -5.04971 l -11.15029,-13.95716 c -6.13266,-7.67644 -11.41179,-13.97644 -11.7314,-14 -0.31961,-0.0236 -0.67961,6.16716 -0.8,13.75716 l -0.21889,13.8 -5.4,0.23655 -5.4,0.23655 z m 191.2,5.10954 v -19.6 h -7.2 -7.2 v -5.2 c 0,-5.50004 -0.11495,-5.36 4.4,-5.36 1.1,0 9.56,0.036 18.8,0.08 l 16.8,0.08 v 4.74608 c 0,5.4356 -0.53188,5.86336 -7.01458,5.64136 -2.08198,-0.0713 -4.59542,-0.0976 -5.58542,-0.0586 l -1.8,0.0711 v 19.6 19.6 h -5.6 -5.6 z m 93.6,-5.12535 v -24.72533 l 7.73364,-0.57982 c 4.2535,-0.3189 10.60736,-0.38284 14.11969,-0.1421 5.31767,0.36448 6.91977,0.81704 9.57625,2.70515 9.54713,6.78565 9.82433,22.27198 0.51931,29.0125 l -3.20765,2.32361 5.86854,7.06567 c 3.22769,3.88611 6.14216,7.51567 6.47659,8.06567 0.46783,0.76939 -0.96681,1 -6.22108,1 h -6.82914 l -5.60937,-7.11107 c -5.59406,-7.09168 -6.78898,-8.08893 -9.69221,-8.08893 -1.40507,0 -1.53457,0.64134 -1.53457,7.6 v 7.6 h -5.6 -5.6 z m 25.23636,-2.83829 c 1.40962,-1.40963 1.95646,-2.8203 1.9382,-5 -0.0454,-5.41521 -3.0967,-7.43636 -11.22664,-7.43636 H 400.8 v 7.2 7.2 h 6.03636 c 5.34231,0 6.26214,-0.22578 8,-1.96364 z m 35.93518,26.05332 c 0.26364,-0.83068 5.50786,-12.08068 11.6538,-25 l 11.17445,-23.48968 h 4.80652 4.80652 l 11.19359,24.35686 c 6.15647,13.39627 11.19358,24.64627 11.19358,25 0,0.35372 -2.51482,0.64314 -5.58848,0.64314 h -5.58849 l -2.43405,-4.82183 -2.43405,-4.82183 -11.37747,0.22183 -11.37746,0.22183 -2.4,4.59772 -2.4,4.59772 -5.85391,0.002 c -5.3745,0.002 -5.81465,-0.12141 -5.37455,-1.50804 z M 484.8,474.87967 c 0,-0.70835 -6.35221,-14.07965 -6.68872,-14.07965 -0.29277,0 -3.87624,8.12948 -5.84502,13.26005 -0.35643,0.92883 0.7637,1.13995 6.04815,1.13995 3.56708,0 6.48559,-0.14416 6.48559,-0.32035 z M 249.80222,399.80001 c -1.62212,-2.04375 -2.75162,-7.1528 -2.2144,-10.01642 0.30048,-1.60167 2.66256,-7.06821 5.24906,-12.14786 2.58651,-5.07965 5.65541,-11.75572 6.81977,-14.83572 2.75413,-7.28526 5.91527,-18.07707 5.15807,-17.60909 -0.32542,0.20112 -2.69178,3.88544 -5.25858,8.18738 -6.86,11.49734 -19.31277,30.42583 -22.61822,34.38021 -1.58221,1.89283 -3.33126,3.4415 -3.88678,3.4415 -3.76823,0 -7.00043,-20.79567 -7.98893,-51.4 -0.28068,-8.69 -0.77178,-15.8 -1.09132,-15.8 -0.75914,0 -4.20089,4.54559 -5.75445,7.6 -0.99288,1.95209 -1.14373,4.60225 -0.80826,14.2 0.22684,6.49 0.15777,11.8 -0.15348,11.8 -1.45997,0 -15.35943,-11.68617 -23.30363,-19.59285 -23.3586,-23.2483 -37.72809,-51.29765 -44.07546,-86.03554 -1.9464,-10.65231 -1.92673,-34.78988 0.0381,-46.77161 5.94384,-36.24567 25.24,-69.97762 53.68627,-93.8499 20.70357,-17.374555 47.82315,-29.644971 75.6,-34.205675 7.26773,-1.193294 34.4,-1.59506 34.4,-0.509385 0,0.349277 -4.22724,1.44361 -9.39387,2.431853 -22.50657,4.304924 -41.31815,13.285196 -58.98631,28.158877 -21.76042,18.3187 -36.00292,42.16497 -42.98754,71.97423 -1.57998,6.74307 -1.78102,9.76487 -1.78303,26.8 -0.002,21.05205 0.96573,28.08364 5.89341,42.8 5.11748,15.2832 14.63876,33.33926 19.24304,36.49232 7.81451,5.35146 16.26391,-1.34114 21.72208,-17.2056 0.823,-2.39209 1.37625,-4.46936 1.22944,-4.61616 -0.1468,-0.14681 -2.34041,2.38034 -4.87469,5.61588 -4.89944,6.25522 -10.25384,10.91356 -12.54424,10.91356 -2.03535,0 -2.68113,-7.96538 -1.60334,-19.77626 3.19618,-35.02487 16.83967,-60.97651 42.1381,-80.15202 7.37872,-5.59286 21.5508,-12.50708 29.88306,-14.57923 9.38167,-2.33313 18.80245,-1.88885 25.08067,1.1828 5.79492,2.83519 11.9128,9.49723 14.2591,15.52738 2.49907,6.42279 2.53625,20.19891 0.0793,29.39733 -4.44439,16.63926 -12.86974,38.66566 -20.97951,54.84678 -9.70041,19.35486 -26.52949,44.76805 -38.40357,57.99231 l -2.90838,3.23908 -2.98952,18.58146 c -3.25021,20.20179 -5.49204,28.1017 -10.95383,38.59996 -3.38213,6.50096 -11.14465,15.94041 -13.10853,15.94041 -0.55872,0 -1.37304,-0.45 -1.80956,-1 z m -6.12776,-49.519 c 5.19089,-2.44001 11.36948,-8.37439 20.47283,-19.66365 22.84594,-28.33176 41.76607,-57.66004 49.71097,-77.05748 3.26693,-7.97616 7.97517,-23.67818 7.50495,-25.029 -0.17823,-0.51198 -3.82325,6.04626 -8.10006,14.57387 -19.23474,38.35254 -37.61156,65.5894 -65.63703,97.28275 -10.77485,12.18502 -11.22517,13.31246 -3.95166,9.89351 z m 0.50898,-27.57395 c 13.55166,-6.86715 37.80975,-39.96255 45.00727,-61.40359 3.22395,-9.60398 2.09896,-9.78041 -3.13799,-0.49213 -10.1918,18.07622 -21.47967,33.53057 -37.60508,51.48553 -7.99227,8.89904 -10.53498,12.50314 -8.82105,12.50314 0.23463,0 2.28521,-0.94183 4.55685,-2.09295 z m -3.99855,-20.14581 c 3.00218,-2.79159 6.4406,-7.88478 6.07118,-8.99302 C 245.9106,292.53181 233.6,305.09428 233.6,306.48325 c 0,1.06626 3.39489,-0.95575 6.58489,-3.922 z m 10.11637,-69.3397 c 1.83451,-6.64861 4.68634,-13.25889 8.12006,-18.82154 1.6016,-2.59461 1.48176,-2.53592 -1.63364,0.8 -5.3526,5.73147 -9.56028,15.30734 -9.57902,21.8 -0.0139,4.83299 1.08797,3.48669 3.0926,-3.77846 z m 33.72536,149.05878 c -3.72536,-0.38889 -7.01838,-0.97105 -7.31782,-1.29369 -0.29945,-0.32265 0.28715,-3.84523 1.30356,-7.82796 1.01641,-3.98274 2.43715,-12.06225 3.1572,-17.95448 0.72006,-5.89221 2.0621,-14.33361 2.98232,-18.75865 1.65018,-7.93521 1.73306,-8.10327 6.04406,-12.25561 4.76375,-4.58842 13.26759,-9.07972 19.80406,-10.45951 2.2,-0.4644 9.22,-0.83256 15.6,-0.81812 10.58975,0.0239 12.78355,0.29891 25.1899,3.15697 15.13419,3.48649 15.95968,3.59561 15.359,2.03027 -0.31796,-0.8286 1.0937,-1.34446 5.7144,-2.08821 8.37394,-1.34787 14.85053,-3.83086 21.41128,-8.20862 5.34948,-3.56953 8.96143,-6.53265 28.38527,-23.28643 9.71384,-8.37855 24.22178,-18.5549 27.69595,-19.42687 5.74691,-1.44238 6.30354,3.48809 1.78384,15.80097 -11.75614,32.02696 -31.18175,57.03884 -58.55381,75.39225 -31.19788,20.9187 -69.45301,30.08001 -108.55921,25.99769 z m 53.84775,-33.0312 c 3.30832,-0.63298 7.0771,-1.70005 8.37509,-2.37127 2.66422,-1.37773 6.18483,-5.2653 6.94917,-7.67353 0.45914,-1.44661 1.20544,-1.60432 7.59211,-1.60432 4.35058,0 9.80766,-0.63825 14.14609,-1.65451 8.30379,-1.94513 22.04251,-8.41844 30.42963,-14.33761 7.31151,-5.16008 17.67595,-14.88937 23.01848,-21.60788 4.68992,-5.89782 10.01506,-14.0166 10.01506,-15.2691 0,-1.11274 -5.46103,3.34164 -17.38175,14.17771 -29.39392,26.71941 -48.63321,34.43898 -71.51704,28.6955 -2.02685,-0.5087 -2.06725,-0.43188 -2.56268,4.8736 -0.55533,5.94689 -3.17142,10.98056 -6.20761,11.94422 -2.65752,0.84346 -3.10527,-0.73895 -3.11867,-11.02193 l -0.0122,-9.4 h -3.10351 -3.10351 l -0.57845,10.8 c -0.34249,6.39464 -0.90972,10.8 -1.3906,10.8 -0.44669,0 -2.20981,-1.39765 -3.91805,-3.10588 -3.28829,-3.28829 -3.34702,-3.52089 -3.45222,-13.6726 -0.0581,-5.6047 -0.73161,-6.32758 -4.91693,-5.27712 -1.90677,0.47856 -1.93673,0.62666 -1.93673,9.57289 0,11.03573 -0.74105,12.29042 -5.0332,8.52185 -2.92122,-2.56487 -4.5668,-7.03063 -4.5668,-12.39339 0,-1.56516 -0.27,-2.84426 -0.6,-2.84244 -1.61774,0.009 -9.53677,5.54967 -10.57469,7.39885 -1.44933,2.58218 -0.77238,3.45395 1.66793,2.14794 1.37978,-0.73843 1.90687,-0.74977 2.14144,-0.0461 1.03226,3.09676 5.82367,8.72717 8.83794,10.38548 3.59699,1.97889 9.30097,2.47631 11.87539,1.03559 0.90913,-0.50878 2.55241,-0.15346 5.38044,1.16338 4.78489,2.22803 5.6288,2.27541 13.54592,0.76062 z M 299.2,310.76995 c 0,-0.18704 2.29879,-3.4968 5.10842,-7.35501 11.81992,-16.23123 24.12151,-38.7201 31.62522,-57.81493 15.06309,-38.33133 16.96408,-56.62653 7.50693,-72.24692 -1.54738,-2.5558 -2.68452,-4.74709 -2.52699,-4.86953 0.15753,-0.12244 2.80642,-0.81906 5.88642,-1.54803 8.39032,-1.98584 17.61838,-6.85376 23.05033,-12.15937 2.55768,-2.49819 4.73292,-4.41481 4.83387,-4.25916 0.72578,1.11908 2.28104,9.27877 3.03894,15.94389 0.67715,5.95496 0.6763,10.25614 -0.003,16.95881 -1.6467,16.23996 -5.48114,26.33329 -15.26444,40.18031 -3.10873,4.4 -8.18165,11.58025 -11.27317,15.95612 -5.94591,8.41608 -17.38331,30.68102 -19.51484,37.98908 -2.1353,7.32102 -1.7165,10.53102 2.41849,18.53713 3.48744,6.75231 3.61918,7.23823 2.44732,9.02672 -1.20932,1.84565 -1.57461,1.89858 -15.48585,2.24391 -12.32626,0.30598 -14.75969,0.58312 -18.04731,2.05537 -2.09,0.93593 -3.8,1.54866 -3.8,1.36161 z m 60.69336,-103.1148 c 3.36874,-1.74204 5.03282,-6.25546 4.74728,-12.87583 l -0.24064,-5.57931 -1.46146,4.4 c -0.80381,2.42 -2.84268,6.62113 -4.53082,9.33585 -3.7033,5.95532 -3.31148,7.19998 1.48564,4.71929 z m 20.10118,75.74486 -0.006,-17.4 -2.73197,-1.86026 c -3.93987,-2.68273 -5.51031,-6.49766 -5.08654,-12.35628 0.32395,-4.47859 0.59228,-5.03357 3.98243,-8.23668 4.13773,-3.90946 7.58184,-4.91069 12.4152,-3.60921 4.19431,1.12942 7.0986,3.47301 9.05413,7.30618 3.12387,6.1233 1.08914,13.33919 -4.87416,17.28551 -3.18859,2.11012 -3.21792,2.17498 -2.9842,6.6009 l 0.23617,4.46984 3.4,0.246 3.4,0.246 v 3.93876 c 0,3.4745 -0.22307,3.99474 -1.89252,4.41375 -1.04089,0.26124 -2.57089,0.35811 -3.4,0.21524 -1.38366,-0.23841 -1.52621,0.41378 -1.73546,7.94025 l -0.228,8.2 h -4.772 H 380 l -0.006,-17.4 z M 389.4,256.20332 c 2.29838,-3.00884 -0.13088,-8.20331 -3.83636,-8.20331 -1.93933,0 -5.56364,3.38743 -5.56364,5.2 0,0.7 0.91812,2.19084 2.04026,3.31298 1.58213,1.58213 2.52521,1.92341 4.2,1.51985 1.18786,-0.28622 2.60974,-1.1095 3.15974,-1.82952 z M 277.10423,165.55477 c 4.69115,-5.23249 9.50411,-12.19011 11.13856,-16.10192 1.74438,-4.17487 2.65719,-4.29631 4.95335,-0.65897 1.12939,1.78908 4.00748,4.76479 6.39574,6.61269 l 4.3423,3.35983 -6.61041,1.75481 c -3.63574,0.96514 -10.01093,3.24509 -14.1671,5.06654 -4.15617,1.82146 -8.09667,3.53899 -8.75667,3.81676 -0.66,0.27776 0.5569,-1.45462 2.70423,-3.84974 z m 51.97828,-5.20365 c -3.98591,-2.273 -6.2592,-2.95603 -12,-3.60552 -13.02733,-1.47386 -21.74685,-8.29261 -25.5765,-20.0011 -1.19103,-3.64138 -1.2543,-4.97894 -0.45575,-9.6357 0.90692,-5.28876 3.02646,-10.98585 4.47746,-12.03495 0.77471,-0.56012 6.07228,1.66209 6.07228,2.54718 0,0.28857 -0.5361,2.2919 -1.19134,4.45183 -4.18504,13.79559 3.80325,25.02144 20.97079,29.46999 7.13021,1.84763 8.22055,1.71188 8.22055,-1.02347 0,-5.35873 2.98404,-9.56601 5.97163,-8.41956 1.86577,0.71596 3.62837,4.5686 3.62837,7.93078 v 2.91005 l 3.4,-0.50684 c 11.4763,-1.71072 20.64447,-6.96949 24.33733,-13.95963 2.24277,-4.24531 2.56469,-12.84539 0.65217,-17.4227 -0.66578,-1.59343 -1.11578,-2.97608 -1,-3.07256 0.71483,-0.59572 5.45136,-2.77892 6.02896,-2.77892 0.38387,0 1.57174,1.71 2.63973,3.8 1.63043,3.19064 1.94181,4.95458 1.94181,11 0,8.464 -1.49722,12.28816 -7.36714,18.81692 -5.75817,6.40448 -19.56403,12.35817 -32.23286,13.90024 -3.09418,0.37662 -4.29093,0.0442 -8.51749,-2.36604 z m -6.39736,-20.4939 c -0.93569,-1.02147 -1.94701,-2.66758 -2.24737,-3.65801 -0.48421,-1.59669 -0.90496,-1.74341 -3.71236,-1.29449 -3.59332,0.5746 -5.83309,-0.8342 -6.67795,-4.20038 -0.75925,-3.02514 0.0728,-3.53206 3.69807,-2.25298 1.81723,0.64115 3.453,1.01677 3.63506,0.83471 0.81485,-0.81485 -3.24385,-6.9881 -6.35301,-9.66288 -3.59658,-3.09411 -5.475,-4.0474 -14.62759,-7.42342 -6.81633,-2.51427 -12.98792,-6.43784 -15.52577,-9.87046 l -1.89075,-2.557379 5.90826,0.573929 c 9.08215,0.88224 13.39919,1.96773 19.68094,4.94865 9.96852,4.73041 18.32682,13.97189 21.07829,23.30549 0.55126,1.87 1.28325,3.4 1.62664,3.4 1.25749,0 1.71421,-7.25755 0.68749,-10.92463 -1.3953,-4.98353 -7.0178,-12.22809 -12.32933,-15.88628 -2.41269,-1.66169 -4.23143,-3.27251 -4.04163,-3.57961 0.1898,-0.30709 3.14876,-1.42486 6.57548,-2.483917 5.28968,-1.634824 7.80064,-1.91716 16.63038,-1.869912 9.10862,0.04872 11.22882,0.329176 17.07487,2.258464 3.67119,1.211545 6.52884,2.348845 6.35035,2.527345 -0.1785,0.1785 -2.48728,1.72238 -5.13063,3.43086 -9.94789,6.42963 -15.84531,17.43211 -13.12413,24.48491 l 0.90949,2.35722 2.63136,-6.05303 c 3.06591,-7.05265 4.98015,-9.92236 8.93497,-13.39474 7.06246,-6.20092 15.8364,-10.03801 26.75372,-11.70016 11.30063,-1.720501 11.27095,-1.728693 7.56236,2.08815 -2.9535,3.0397 -6.24334,4.86057 -22.98186,12.72009 -5.56409,2.6126 -10.22961,6.66916 -12.33032,10.72095 l -1.19024,2.29569 2.67003,-0.41228 c 1.46852,-0.22676 3.48003,-0.67181 4.47003,-0.989 1.56032,-0.49993 1.8,-0.29315 1.8,1.55294 0,1.2225 -0.87905,3.00872 -2.06365,4.19332 -1.78435,1.78435 -2.5295,1.9998 -5.50565,1.59187 -3.25475,-0.44611 -3.46621,-0.35363 -3.88716,1.69999 -0.24485,1.19447 -1.2535,2.66616 -2.24146,3.27041 -1.68935,1.03325 -2.07526,0.80548 -6.48303,-3.82629 -5.00684,-5.26128 -5.30028,-5.30642 -8.60943,-1.32429 -1.10529,1.33007 -2.91268,3.44162 -4.01642,4.69233 l -2.0068,2.27404 z"
       id="path424" />
  </g>
</svg>
