<?xml version="1.0" encoding="UTF-8" standalone="no"?>
<!DOCTYPE svg PUBLIC "-//W3C//DTD SVG 1.1//EN" "http://www.w3.org/Graphics/SVG/1.1/DTD/svg11.dtd">
<svg xmlns="http://www.w3.org/2000/svg" version="1.1" viewBox="0.00 0.00 720.00 720.00">
<g stroke-width="2.00" fill="none" stroke-linecap="butt">
<path stroke="#8a898a" vector-effect="non-scaling-stroke" d="
  M 287.92 393.27
  Q 287.87 418.61 291.13 443.74
  C 291.67 447.93 292.34 454.58 295.19 457.83
  A 1.44 1.44 0.0 0 0 297.29 457.91
  Q 301.16 454.07 303.83 450.07
  Q 315.83 432.14 326.79 413.63
  A 0.26 0.26 0.0 0 1 327.26 413.82
  Q 322.42 433.55 311.98 451.17
  Q 308.10 457.73 311.37 465.11
  Q 312.14 466.85 313.41 467.64
  A 0.86 0.85 43.5 0 0 314.35 467.62
  C 325.06 460.36 333.04 440.11 334.77 428.73
  Q 337.12 413.22 339.86 397.76
  Q 340.06 396.64 340.88 395.87
  C 345.84 391.20 349.37 386.17 353.44 380.79
  Q 383.39 341.23 398.25 291.48
  C 402.81 276.23 404.86 257.98 391.79 246.45
  C 375.51 232.11 346.64 245.00 332.34 256.09
  C 302.35 279.33 290.59 313.11 292.56 350.28
  A 1.48 1.47 84.9 0 0 294.21 351.66
  C 299.44 351.03 307.36 340.08 310.36 336.01
  A 0.40 0.40 0.0 0 1 311.07 336.35
  C 309.07 343.69 305.73 351.96 300.03 356.54
  C 294.15 361.26 288.22 357.60 284.91 352.31
  Q 258.83 310.62 265.19 262.49
  C 269.50 229.91 288.72 198.90 315.24 179.69
  Q 341.21 160.87 373.57 157.08
  A 0.46 0.46 0.0 0 0 373.57 156.17
  C 348.19 153.16 321.35 158.90 298.46 169.98
  Q 259.13 189.02 236.25 226.25
  C 194.21 294.68 215.66 381.38 281.17 426.32
  Q 281.71 426.69 281.68 426.04
  Q 281.15 415.40 280.72 404.75
  C 280.57 401.00 285.57 395.45 287.51 393.13
  Q 287.93 392.63 287.92 393.27"
/>
<path stroke="#8a898a" vector-effect="non-scaling-stroke" d="
  M 407.24 211.43
  C 412.23 214.47 417.15 211.37 417.50 205.87
  A 0.92 0.92 0.0 0 0 416.19 204.99
  Q 412.93 206.57 409.30 206.74
  A 0.51 0.51 0.0 0 1 408.82 206.01
  C 413.63 196.30 421.84 193.77 431.18 189.97
  C 437.75 187.29 441.83 184.28 446.20 179.29
  A 0.26 0.26 0.0 0 0 445.99 178.86
  C 433.34 179.37 421.02 182.24 410.99 190.81
  C 404.56 196.30 402.72 201.79 399.97 209.27
  Q 399.68 210.03 399.33 209.30
  C 394.21 198.51 405.82 185.85 415.11 181.93
  Q 417.28 181.02 415.11 180.11
  Q 393.76 171.16 372.30 179.87
  Q 370.34 180.67 372.20 181.68
  Q 379.45 185.64 384.40 192.80
  C 388.16 198.24 388.90 203.69 386.88 209.80
  Q 386.65 210.50 386.31 209.85
  Q 385.27 207.81 384.67 205.59
  C 381.30 193.21 369.40 184.13 357.48 180.99
  Q 350.01 179.03 340.58 178.83
  Q 340.06 178.82 340.37 179.24
  Q 344.79 185.22 351.27 188.45
  Q 351.55 188.59 358.86 191.18
  C 367.01 194.08 373.95 198.03 377.31 206.39
  A 0.55 0.55 0.0 0 1 376.63 207.12
  L 370.67 205.26
  A 0.71 0.71 0.0 0 0 369.75 205.97
  C 370.05 212.09 373.77 214.29 379.23 211.38
  Q 379.79 211.08 379.80 211.72
  Q 379.81 216.07 383.54 218.37
  Q 384.12 218.73 384.55 218.21
  L 392.15 209.24
  A 1.12 1.11 40.1 0 1 393.73 209.11
  C 396.82 211.75 398.79 215.47 402.12 217.95
  Q 402.56 218.28 403.05 218.02
  Q 406.71 216.06 406.64 211.78
  A 0.40 0.39 -74.9 0 1 407.24 211.43"
/>
<path stroke="#8a898a" vector-effect="non-scaling-stroke" d="
  M 398.05 229.01
  C 398.64 225.70 397.66 220.42 394.00 219.20
  C 389.51 217.70 388.40 226.01 388.97 229.10
  Q 389.08 229.72 388.46 229.68
  Q 380.36 229.18 371.98 225.06
  Q 362.96 220.62 360.11 211.72
  C 358.22 205.78 360.43 201.48 361.86 196.14
  A 0.75 0.74 -68.3 0 0 361.50 195.29
  L 357.73 193.20
  Q 356.16 192.33 355.32 193.91
  C 346.47 210.44 353.11 225.13 369.23 232.29
  Q 370.96 233.06 373.43 232.97
  Q 384.17 232.57 392.74 239.25
  Q 393.13 239.56 393.64 239.50
  C 408.25 237.62 426.13 232.82 432.86 217.91
  Q 438.24 206.00 430.78 193.34
  A 0.61 0.61 0.0 0 0 429.99 193.11
  L 424.62 195.81
  Q 424.19 196.03 424.38 196.47
  C 433.38 216.91 416.39 228.41 398.43 229.43
  Q 397.97 229.46 398.05 229.01"
/>
<path stroke="#8a898a" vector-effect="non-scaling-stroke" d="
  M 362.19 235.73
  C 362.74 235.59 363.39 235.70 363.94 235.51
  A 0.39 0.39 0.0 0 0 364.00 234.80
  Q 355.99 230.54 351.80 222.44
  A 0.40 0.40 0.0 0 0 351.08 222.46
  Q 345.39 235.43 335.13 245.18
  A 0.35 0.35 0.0 0 0 335.53 245.75
  Q 348.43 239.19 362.19 235.73"
/>
<path stroke="#c0c0c0" vector-effect="non-scaling-stroke" d="
  M 394.05 377.32
  Q 397.13 377.79 404.75 378.26
  Q 415.86 378.94 422.90 387.34"
/>
<path stroke="#8a898a" vector-effect="non-scaling-stroke" d="
  M 422.90 387.34
  Q 424.19 387.98 423.90 388.84
  A 0.77 0.76 -74.1 0 1 422.99 389.35
  Q 409.04 385.91 395.49 383.05
  C 391.10 382.12 386.73 384.17 382.17 383.42
  C 369.91 381.39 356.78 387.20 348.47 395.99
  Q 347.04 397.50 346.53 399.73
  Q 343.13 414.67 342.86 418.99
  Q 341.92 433.70 337.46 447.78
  A 0.83 0.82 -77.3 0 0 338.12 448.84
  C 370.55 453.66 405.15 449.10 434.26 433.88
  Q 488.03 405.78 507.65 346.72
  C 508.71 343.53 510.14 337.30 505.74 337.07
  Q 503.36 336.95 501.28 338.12
  C 487.32 345.95 478.31 354.48 463.62 367.63
  Q 455.84 374.59 448.00 379.55
  Q 439.32 385.05 429.85 386.12"
/>
<path stroke="#c0c0c0" vector-effect="non-scaling-stroke" d="
  M 429.85 386.12
  Q 423.29 372.78 408.75 371.88
  Q 403.62 371.57 396.57 373.70"
/>
<path stroke="#8a898a" vector-effect="non-scaling-stroke" d="
  M 396.57 373.70
  Q 394.11 368.57 391.29 363.62
  C 387.57 357.11 389.99 350.46 392.63 343.98
  Q 397.87 331.13 404.98 319.26
  C 409.86 311.11 417.81 301.34 422.70 294.44
  C 436.11 275.51 438.63 248.77 431.96 226.88
  A 0.20 0.20 0.0 0 0 431.61 226.82
  C 423.76 237.56 412.23 242.18 399.48 244.38
  A 0.41 0.41 0.0 0 0 399.23 245.04
  C 412.79 262.26 407.66 281.01 401.74 299.72
  Q 387.61 344.44 359.23 381.49
  Q 359.19 381.54 359.25 381.51
  Q 365.82 377.76 373.51 377.83
  Q 383.66 377.93 394.05 377.32"
/>
<path stroke="#585758" vector-effect="non-scaling-stroke" d="
  M 396.57 373.70
  Q 395.11 376.66 394.05 377.32"
/>
<path stroke="#585758" vector-effect="non-scaling-stroke" d="
  M 422.90 387.34
  L 429.85 386.12"
/>
<path stroke="#8a898a" vector-effect="non-scaling-stroke" d="
  M 446.93 355.82
  L 452.36 355.77
  Q 452.98 355.76 453.00 355.14
  L 453.17 348.19
  Q 453.19 347.70 452.70 347.68
  L 447.20 347.43
  A 0.73 0.73 0.0 0 1 446.50 346.70
  L 446.49 339.00
  Q 446.49 338.36 447.08 338.09
  C 454.48 334.78 457.92 326.91 454.04 319.64
  C 450.86 313.68 443.06 311.00 436.99 313.76
  C 426.47 318.53 426.59 333.15 436.91 337.90
  Q 437.28 338.07 437.28 338.47
  L 437.43 370.96
  Q 437.44 371.49 437.97 371.49
  L 445.85 371.47
  Q 446.42 371.47 446.42 370.90
  L 446.42 356.32
  Q 446.42 355.82 446.93 355.82"
/>
<path stroke="#8a898a" vector-effect="non-scaling-stroke" d="
  M 284.5346 531.8183
  A 25.57 25.18 -4.4 0 0 257.1082 508.6742
  A 25.57 25.18 -4.4 0 0 233.5454 535.7417
  A 25.57 25.18 -4.4 0 0 260.9718 558.8858
  A 25.57 25.18 -4.4 0 0 284.5346 531.8183"
/>
<path stroke="#8a898a" vector-effect="non-scaling-stroke" d="
  M 311.14 523.40
  C 318.15 517.02 328.03 518.72 333.86 525.99
  A 0.49 0.48 53.6 0 0 334.51 526.09
  L 340.99 521.76
  Q 341.37 521.50 341.17 521.08
  C 332.07 502.74 305.79 505.70 297.85 523.30
  C 285.31 551.10 323.99 573.57 341.48 546.79
  A 0.68 0.68 0.0 0 0 341.35 545.89
  L 334.92 540.59
  A 0.61 0.61 0.0 0 0 334.03 540.71
  C 328.16 549.27 316.46 550.75 309.71 542.29
  C 305.16 536.59 305.73 528.32 311.14 523.40"
/>
<path stroke="#8a898a" vector-effect="non-scaling-stroke" d="
  M 421.72 536.00
  C 421.71 552.37 400.61 550.28 400.70 537.49
  Q 400.80 524.04 400.74 510.49
  Q 400.74 510.00 400.25 510.00
  L 390.23 509.98
  A 0.47 0.47 0.0 0 0 389.76 510.45
  Q 389.65 523.27 389.73 536.11
  Q 389.77 542.27 391.14 545.72
  C 397.93 562.85 424.23 563.01 431.10 546.19
  Q 432.48 542.81 432.52 536.49
  Q 432.60 523.52 432.59 510.52
  A 0.56 0.56 0.0 0 0 432.03 509.96
  L 422.49 510.06
  Q 421.97 510.06 421.96 510.57
  Q 421.72 523.29 421.72 536.00"
/>
<path stroke="#8a898a" vector-effect="non-scaling-stroke" d="
  M 519.94 549.55
  A 0.65 0.65 0.0 0 1 520.52 549.19
  L 542.08 548.97
  A 0.65 0.65 0.0 0 1 542.67 549.34
  L 546.59 557.59
  A 0.65 0.65 0.0 0 0 547.18 557.96
  L 557.19 557.91
  A 0.65 0.65 0.0 0 0 557.78 556.99
  L 536.29 510.21
  A 0.65 0.65 0.0 0 0 535.70 509.83
  L 527.37 509.85
  A 0.65 0.65 0.0 0 0 526.78 510.22
  L 504.67 557.09
  A 0.65 0.65 0.0 0 0 505.25 558.01
  L 515.45 558.05
  A 0.65 0.65 0.0 0 0 516.04 557.68
  L 519.94 549.55"
/>
<path stroke="#8a898a" vector-effect="non-scaling-stroke" d="
  M 183.16 557.90
  A 0.44 0.44 0.0 0 0 183.60 557.46
  L 183.65 531.16
  A 0.44 0.44 0.0 0 1 184.43 530.88
  L 206.29 557.89
  A 0.44 0.44 0.0 0 0 206.63 558.05
  L 215.72 558.01
  A 0.44 0.44 0.0 0 0 216.16 557.57
  L 216.26 510.45
  A 0.44 0.44 0.0 0 0 215.82 510.01
  L 205.71 510.00
  A 0.44 0.44 0.0 0 0 205.27 510.44
  L 205.20 537.16
  A 0.44 0.44 0.0 0 1 204.42 537.44
  L 182.50 510.15
  A 0.44 0.44 0.0 0 0 182.16 509.98
  L 173.40 510.02
  A 0.44 0.44 0.0 0 0 172.96 510.46
  L 172.98 557.40
  A 0.44 0.44 0.0 0 0 173.42 557.84
  L 183.16 557.90"
/>
<path stroke="#8a898a" vector-effect="non-scaling-stroke" d="
  M 355.90 520.15
  A 0.51 0.51 0.0 0 1 356.41 520.66
  L 356.52 557.44
  A 0.51 0.51 0.0 0 0 357.03 557.95
  L 366.75 557.89
  A 0.51 0.51 0.0 0 0 367.25 557.39
  L 367.42 520.60
  A 0.51 0.51 0.0 0 1 367.92 520.10
  L 380.43 520.02
  A 0.51 0.51 0.0 0 0 380.94 519.52
  L 381.10 510.51
  A 0.51 0.51 0.0 0 0 380.59 509.99
  L 343.25 510.01
  A 0.51 0.51 0.0 0 0 342.74 510.53
  L 342.83 519.69
  A 0.51 0.51 0.0 0 0 343.35 520.20
  L 355.90 520.15"
/>
<path stroke="#8a898a" vector-effect="non-scaling-stroke" d="
  M 457.47 543.54
  C 460.10 543.25 461.75 543.62 463.52 545.80
  Q 468.17 551.52 472.38 557.11
  A 2.20 2.19 71.4 0 0 474.13 557.98
  L 485.59 557.96
  A 0.50 0.49 70.3 0 0 485.97 557.15
  L 474.31 542.86
  A 0.66 0.66 0.0 0 1 474.56 541.84
  C 489.56 535.39 485.26 510.71 469.00 509.95
  Q 463.16 509.67 446.64 510.13
  Q 446.03 510.15 446.03 510.76
  L 446.04 556.70
  Q 446.04 557.86 447.20 557.87
  L 456.28 557.94
  A 0.72 0.72 0.0 0 0 457.00 557.22
  L 456.92 544.17
  Q 456.91 543.60 457.47 543.54"
/>
<path stroke="#8a898a" vector-effect="non-scaling-stroke" d="
  M 321.90 286.14
  C 314.51 292.83 310.08 302.47 309.44 312.28
  A 0.73 0.72 54.9 0 0 310.86 312.53
  C 313.64 302.71 315.09 294.93 322.28 286.24
  A 0.07 0.06 32.3 0 0 322.25 286.14
  Q 322.21 286.12 322.17 286.11
  Q 322.02 286.03 321.90 286.14"
/>
<path stroke="#8a898a" vector-effect="non-scaling-stroke" d="
  M 376.53 310.00
  Q 364.35 334.71 355.39 349.41
  Q 335.08 382.77 305.35 415.08
  Q 303.31 417.30 301.87 419.65
  A 0.57 0.57 0.0 0 0 302.51 420.50
  C 309.14 418.67 314.53 413.72 319.45 407.95
  Q 344.06 379.07 363.48 346.49
  Q 375.28 326.70 380.43 305.28
  Q 381.90 299.17 378.83 304.64
  C 378.16 305.83 377.35 308.33 376.53 310.00"
/>
<path stroke="#8a898a" vector-effect="non-scaling-stroke" d="
  M 345.94 343.45
  C 348.25 338.82 349.95 334.13 351.20 329.33
  Q 353.08 322.07 349.61 328.71
  Q 332.97 360.53 305.49 388.50
  Q 303.35 390.68 302.20 393.14
  A 0.73 0.72 2.4 0 0 303.11 394.12
  C 311.06 391.20 315.32 386.63 321.60 379.51
  Q 336.12 363.08 345.94 343.45"
/>
<path stroke="#8a898a" vector-effect="non-scaling-stroke" d="
  M 308.58 363.59
  L 296.30 376.85
  A 0.12 0.12 0.0 0 0 296.30 377.02
  L 296.33 377.05
  A 8.97 2.16 -47.2 0 0 304.01 371.94
  L 304.27 371.66
  A 8.97 2.16 -47.2 0 0 308.78 363.61
  L 308.75 363.58
  A 0.12 0.12 0.0 0 0 308.58 363.59"
/>
<path stroke="#8a898a" vector-effect="non-scaling-stroke" d="
  M 422.01 265.02
  C 420.66 271.23 418.01 276.37 414.10 281.50
  A 1.12 1.12 0.0 0 0 415.27 283.26
  C 423.39 281.10 423.13 271.50 422.32 265.03
  Q 422.21 264.13 422.01 265.02"
/>
<path stroke="#8a898a" vector-effect="non-scaling-stroke" d="
  M 447.09 325.78
  A 4.77 4.77 0.0 0 0 442.32 321.01
  A 4.77 4.77 0.0 0 0 437.55 325.78
  A 4.77 4.77 0.0 0 0 442.32 330.55
  A 4.77 4.77 0.0 0 0 447.09 325.78"
/>
<path stroke="#8a898a" vector-effect="non-scaling-stroke" d="
  M 412.79 406.27
  Q 423.46 407.11 427.76 406.30
  C 454.56 401.26 480.11 380.09 493.34 356.15
  A 0.29 0.29 0.0 0 0 492.91 355.78
  C 488.29 359.31 484.11 362.60 479.75 366.82
  C 460.49 385.47 435.56 406.21 406.33 396.92
  Q 405.85 396.77 405.83 397.28
  C 405.55 404.41 406.28 409.34 399.31 413.82
  A 1.69 1.68 72.9 0 1 396.72 412.44
  L 396.28 394.46
  A 0.60 0.60 0.0 0 0 395.71 393.88
  L 390.78 393.65
  Q 390.28 393.62 390.27 394.12
  Q 390.10 402.56 390.00 411.01
  Q 389.98 412.62 389.41 414.36
  Q 389.25 414.85 388.76 414.67
  C 379.33 411.19 381.44 401.92 381.53 394.02
  Q 381.54 393.45 380.97 393.46
  L 375.77 393.58
  Q 375.14 393.59 375.13 394.23
  L 374.99 411.04
  A 1.91 1.90 -76.2 0 1 372.22 412.72
  C 365.44 409.29 365.83 403.30 365.67 396.52
  Q 365.66 395.86 365.06 396.15
  C 361.53 397.83 354.35 401.39 354.38 405.61
  Q 354.39 406.35 355.00 405.93
  L 357.62 404.08
  A 0.78 0.78 0.0 0 1 358.81 404.47
  C 361.86 413.49 370.28 420.26 379.98 415.46
  Q 380.45 415.23 380.85 415.55
  Q 386.35 419.97 392.78 418.49
  Q 395.56 417.84 397.70 417.70
  Q 408.38 416.95 412.13 406.69
  Q 412.30 406.23 412.79 406.27"
/>
<path stroke="#8a898a" vector-effect="non-scaling-stroke" d="
  M 273.38 533.71
  A 14.34 14.34 0.0 0 0 259.04 519.37
  A 14.34 14.34 0.0 0 0 244.70 533.71
  A 14.34 14.34 0.0 0 0 259.04 548.05
  A 14.34 14.34 0.0 0 0 273.38 533.71"
/>
<path stroke="#8a898a" vector-effect="non-scaling-stroke" d="
  M 525.48 538.27
  A 0.38 0.38 0.0 0 0 525.83 538.80
  L 537.18 538.64
  A 0.38 0.38 0.0 0 0 537.52 538.10
  L 531.67 525.45
  A 0.38 0.38 0.0 0 0 530.97 525.46
  L 525.48 538.27"
/>
<path stroke="#8a898a" vector-effect="non-scaling-stroke" d="
  M 456.92 520.59
  L 456.92 532.83
  A 0.52 0.52 0.0 0 0 457.44 533.35
  L 466.40 533.35
  A 6.14 6.10 0.0 0 0 472.54 527.25
  L 472.54 526.17
  A 6.14 6.10 -0.0 0 0 466.40 520.07
  L 457.44 520.07
  A 0.52 0.52 0.0 0 0 456.92 520.59"
/>
</g>
<path fill="#f2f2f2" d="
  M 0.00 0.00
  L 720.00 0.00
  L 720.00 720.00
  L 0.00 720.00
  L 0.00 0.00
  Z
  M 287.92 393.27
  Q 287.87 418.61 291.13 443.74
  C 291.67 447.93 292.34 454.58 295.19 457.83
  A 1.44 1.44 0.0 0 0 297.29 457.91
  Q 301.16 454.07 303.83 450.07
  Q 315.83 432.14 326.79 413.63
  A 0.26 0.26 0.0 0 1 327.26 413.82
  Q 322.42 433.55 311.98 451.17
  Q 308.10 457.73 311.37 465.11
  Q 312.14 466.85 313.41 467.64
  A 0.86 0.85 43.5 0 0 314.35 467.62
  C 325.06 460.36 333.04 440.11 334.77 428.73
  Q 337.12 413.22 339.86 397.76
  Q 340.06 396.64 340.88 395.87
  C 345.84 391.20 349.37 386.17 353.44 380.79
  Q 383.39 341.23 398.25 291.48
  C 402.81 276.23 404.86 257.98 391.79 246.45
  C 375.51 232.11 346.64 245.00 332.34 256.09
  C 302.35 279.33 290.59 313.11 292.56 350.28
  A 1.48 1.47 84.9 0 0 294.21 351.66
  C 299.44 351.03 307.36 340.08 310.36 336.01
  A 0.40 0.40 0.0 0 1 311.07 336.35
  C 309.07 343.69 305.73 351.96 300.03 356.54
  C 294.15 361.26 288.22 357.60 284.91 352.31
  Q 258.83 310.62 265.19 262.49
  C 269.50 229.91 288.72 198.90 315.24 179.69
  Q 341.21 160.87 373.57 157.08
  A 0.46 0.46 0.0 0 0 373.57 156.17
  C 348.19 153.16 321.35 158.90 298.46 169.98
  Q 259.13 189.02 236.25 226.25
  C 194.21 294.68 215.66 381.38 281.17 426.32
  Q 281.71 426.69 281.68 426.04
  Q 281.15 415.40 280.72 404.75
  C 280.57 401.00 285.57 395.45 287.51 393.13
  Q 287.93 392.63 287.92 393.27
  Z
  M 407.24 211.43
  C 412.23 214.47 417.15 211.37 417.50 205.87
  A 0.92 0.92 0.0 0 0 416.19 204.99
  Q 412.93 206.57 409.30 206.74
  A 0.51 0.51 0.0 0 1 408.82 206.01
  C 413.63 196.30 421.84 193.77 431.18 189.97
  C 437.75 187.29 441.83 184.28 446.20 179.29
  A 0.26 0.26 0.0 0 0 445.99 178.86
  C 433.34 179.37 421.02 182.24 410.99 190.81
  C 404.56 196.30 402.72 201.79 399.97 209.27
  Q 399.68 210.03 399.33 209.30
  C 394.21 198.51 405.82 185.85 415.11 181.93
  Q 417.28 181.02 415.11 180.11
  Q 393.76 171.16 372.30 179.87
  Q 370.34 180.67 372.20 181.68
  Q 379.45 185.64 384.40 192.80
  C 388.16 198.24 388.90 203.69 386.88 209.80
  Q 386.65 210.50 386.31 209.85
  Q 385.27 207.81 384.67 205.59
  C 381.30 193.21 369.40 184.13 357.48 180.99
  Q 350.01 179.03 340.58 178.83
  Q 340.06 178.82 340.37 179.24
  Q 344.79 185.22 351.27 188.45
  Q 351.55 188.59 358.86 191.18
  C 367.01 194.08 373.95 198.03 377.31 206.39
  A 0.55 0.55 0.0 0 1 376.63 207.12
  L 370.67 205.26
  A 0.71 0.71 0.0 0 0 369.75 205.97
  C 370.05 212.09 373.77 214.29 379.23 211.38
  Q 379.79 211.08 379.80 211.72
  Q 379.81 216.07 383.54 218.37
  Q 384.12 218.73 384.55 218.21
  L 392.15 209.24
  A 1.12 1.11 40.1 0 1 393.73 209.11
  C 396.82 211.75 398.79 215.47 402.12 217.95
  Q 402.56 218.28 403.05 218.02
  Q 406.71 216.06 406.64 211.78
  A 0.40 0.39 -74.9 0 1 407.24 211.43
  Z
  M 398.05 229.01
  C 398.64 225.70 397.66 220.42 394.00 219.20
  C 389.51 217.70 388.40 226.01 388.97 229.10
  Q 389.08 229.72 388.46 229.68
  Q 380.36 229.18 371.98 225.06
  Q 362.96 220.62 360.11 211.72
  C 358.22 205.78 360.43 201.48 361.86 196.14
  A 0.75 0.74 -68.3 0 0 361.50 195.29
  L 357.73 193.20
  Q 356.16 192.33 355.32 193.91
  C 346.47 210.44 353.11 225.13 369.23 232.29
  Q 370.96 233.06 373.43 232.97
  Q 384.17 232.57 392.74 239.25
  Q 393.13 239.56 393.64 239.50
  C 408.25 237.62 426.13 232.82 432.86 217.91
  Q 438.24 206.00 430.78 193.34
  A 0.61 0.61 0.0 0 0 429.99 193.11
  L 424.62 195.81
  Q 424.19 196.03 424.38 196.47
  C 433.38 216.91 416.39 228.41 398.43 229.43
  Q 397.97 229.46 398.05 229.01
  Z
  M 362.19 235.73
  C 362.74 235.59 363.39 235.70 363.94 235.51
  A 0.39 0.39 0.0 0 0 364.00 234.80
  Q 355.99 230.54 351.80 222.44
  A 0.40 0.40 0.0 0 0 351.08 222.46
  Q 345.39 235.43 335.13 245.18
  A 0.35 0.35 0.0 0 0 335.53 245.75
  Q 348.43 239.19 362.19 235.73
  Z
  M 394.05 377.32
  Q 397.13 377.79 404.75 378.26
  Q 415.86 378.94 422.90 387.34
  Q 424.19 387.98 423.90 388.84
  A 0.77 0.76 -74.1 0 1 422.99 389.35
  Q 409.04 385.91 395.49 383.05
  C 391.10 382.12 386.73 384.17 382.17 383.42
  C 369.91 381.39 356.78 387.20 348.47 395.99
  Q 347.04 397.50 346.53 399.73
  Q 343.13 414.67 342.86 418.99
  Q 341.92 433.70 337.46 447.78
  A 0.83 0.82 -77.3 0 0 338.12 448.84
  C 370.55 453.66 405.15 449.10 434.26 433.88
  Q 488.03 405.78 507.65 346.72
  C 508.71 343.53 510.14 337.30 505.74 337.07
  Q 503.36 336.95 501.28 338.12
  C 487.32 345.95 478.31 354.48 463.62 367.63
  Q 455.84 374.59 448.00 379.55
  Q 439.32 385.05 429.85 386.12
  Q 423.29 372.78 408.75 371.88
  Q 403.62 371.57 396.57 373.70
  Q 394.11 368.57 391.29 363.62
  C 387.57 357.11 389.99 350.46 392.63 343.98
  Q 397.87 331.13 404.98 319.26
  C 409.86 311.11 417.81 301.34 422.70 294.44
  C 436.11 275.51 438.63 248.77 431.96 226.88
  A 0.20 0.20 0.0 0 0 431.61 226.82
  C 423.76 237.56 412.23 242.18 399.48 244.38
  A 0.41 0.41 0.0 0 0 399.23 245.04
  C 412.79 262.26 407.66 281.01 401.74 299.72
  Q 387.61 344.44 359.23 381.49
  Q 359.19 381.54 359.25 381.51
  Q 365.82 377.76 373.51 377.83
  Q 383.66 377.93 394.05 377.32
  Z
  M 446.93 355.82
  L 452.36 355.77
  Q 452.98 355.76 453.00 355.14
  L 453.17 348.19
  Q 453.19 347.70 452.70 347.68
  L 447.20 347.43
  A 0.73 0.73 0.0 0 1 446.50 346.70
  L 446.49 339.00
  Q 446.49 338.36 447.08 338.09
  C 454.48 334.78 457.92 326.91 454.04 319.64
  C 450.86 313.68 443.06 311.00 436.99 313.76
  C 426.47 318.53 426.59 333.15 436.91 337.90
  Q 437.28 338.07 437.28 338.47
  L 437.43 370.96
  Q 437.44 371.49 437.97 371.49
  L 445.85 371.47
  Q 446.42 371.47 446.42 370.90
  L 446.42 356.32
  Q 446.42 355.82 446.93 355.82
  Z
  M 284.5346 531.8183
  A 25.57 25.18 -4.4 0 0 257.1082 508.6742
  A 25.57 25.18 -4.4 0 0 233.5454 535.7417
  A 25.57 25.18 -4.4 0 0 260.9718 558.8858
  A 25.57 25.18 -4.4 0 0 284.5346 531.8183
  Z
  M 311.14 523.40
  C 318.15 517.02 328.03 518.72 333.86 525.99
  A 0.49 0.48 53.6 0 0 334.51 526.09
  L 340.99 521.76
  Q 341.37 521.50 341.17 521.08
  C 332.07 502.74 305.79 505.70 297.85 523.30
  C 285.31 551.10 323.99 573.57 341.48 546.79
  A 0.68 0.68 0.0 0 0 341.35 545.89
  L 334.92 540.59
  A 0.61 0.61 0.0 0 0 334.03 540.71
  C 328.16 549.27 316.46 550.75 309.71 542.29
  C 305.16 536.59 305.73 528.32 311.14 523.40
  Z
  M 421.72 536.00
  C 421.71 552.37 400.61 550.28 400.70 537.49
  Q 400.80 524.04 400.74 510.49
  Q 400.74 510.00 400.25 510.00
  L 390.23 509.98
  A 0.47 0.47 0.0 0 0 389.76 510.45
  Q 389.65 523.27 389.73 536.11
  Q 389.77 542.27 391.14 545.72
  C 397.93 562.85 424.23 563.01 431.10 546.19
  Q 432.48 542.81 432.52 536.49
  Q 432.60 523.52 432.59 510.52
  A 0.56 0.56 0.0 0 0 432.03 509.96
  L 422.49 510.06
  Q 421.97 510.06 421.96 510.57
  Q 421.72 523.29 421.72 536.00
  Z
  M 519.94 549.55
  A 0.65 0.65 0.0 0 1 520.52 549.19
  L 542.08 548.97
  A 0.65 0.65 0.0 0 1 542.67 549.34
  L 546.59 557.59
  A 0.65 0.65 0.0 0 0 547.18 557.96
  L 557.19 557.91
  A 0.65 0.65 0.0 0 0 557.78 556.99
  L 536.29 510.21
  A 0.65 0.65 0.0 0 0 535.70 509.83
  L 527.37 509.85
  A 0.65 0.65 0.0 0 0 526.78 510.22
  L 504.67 557.09
  A 0.65 0.65 0.0 0 0 505.25 558.01
  L 515.45 558.05
  A 0.65 0.65 0.0 0 0 516.04 557.68
  L 519.94 549.55
  Z
  M 183.16 557.90
  A 0.44 0.44 0.0 0 0 183.60 557.46
  L 183.65 531.16
  A 0.44 0.44 0.0 0 1 184.43 530.88
  L 206.29 557.89
  A 0.44 0.44 0.0 0 0 206.63 558.05
  L 215.72 558.01
  A 0.44 0.44 0.0 0 0 216.16 557.57
  L 216.26 510.45
  A 0.44 0.44 0.0 0 0 215.82 510.01
  L 205.71 510.00
  A 0.44 0.44 0.0 0 0 205.27 510.44
  L 205.20 537.16
  A 0.44 0.44 0.0 0 1 204.42 537.44
  L 182.50 510.15
  A 0.44 0.44 0.0 0 0 182.16 509.98
  L 173.40 510.02
  A 0.44 0.44 0.0 0 0 172.96 510.46
  L 172.98 557.40
  A 0.44 0.44 0.0 0 0 173.42 557.84
  L 183.16 557.90
  Z
  M 355.90 520.15
  A 0.51 0.51 0.0 0 1 356.41 520.66
  L 356.52 557.44
  A 0.51 0.51 0.0 0 0 357.03 557.95
  L 366.75 557.89
  A 0.51 0.51 0.0 0 0 367.25 557.39
  L 367.42 520.60
  A 0.51 0.51 0.0 0 1 367.92 520.10
  L 380.43 520.02
  A 0.51 0.51 0.0 0 0 380.94 519.52
  L 381.10 510.51
  A 0.51 0.51 0.0 0 0 380.59 509.99
  L 343.25 510.01
  A 0.51 0.51 0.0 0 0 342.74 510.53
  L 342.83 519.69
  A 0.51 0.51 0.0 0 0 343.35 520.20
  L 355.90 520.15
  Z
  M 457.47 543.54
  C 460.10 543.25 461.75 543.62 463.52 545.80
  Q 468.17 551.52 472.38 557.11
  A 2.20 2.19 71.4 0 0 474.13 557.98
  L 485.59 557.96
  A 0.50 0.49 70.3 0 0 485.97 557.15
  L 474.31 542.86
  A 0.66 0.66 0.0 0 1 474.56 541.84
  C 489.56 535.39 485.26 510.71 469.00 509.95
  Q 463.16 509.67 446.64 510.13
  Q 446.03 510.15 446.03 510.76
  L 446.04 556.70
  Q 446.04 557.86 447.20 557.87
  L 456.28 557.94
  A 0.72 0.72 0.0 0 0 457.00 557.22
  L 456.92 544.17
  Q 456.91 543.60 457.47 543.54
  Z"
/>
<path fill="#222021" d="
  M 287.51 393.13
  C 285.57 395.45 280.57 401.00 280.72 404.75
  Q 281.15 415.40 281.68 426.04
  Q 281.71 426.69 281.17 426.32
  C 215.66 381.38 194.21 294.68 236.25 226.25
  Q 259.13 189.02 298.46 169.98
  C 321.35 158.90 348.19 153.16 373.57 156.17
  A 0.46 0.46 0.0 0 1 373.57 157.08
  Q 341.21 160.87 315.24 179.69
  C 288.72 198.90 269.50 229.91 265.19 262.49
  Q 258.83 310.62 284.91 352.31
  C 288.22 357.60 294.15 361.26 300.03 356.54
  C 305.73 351.96 309.07 343.69 311.07 336.35
  A 0.40 0.40 0.0 0 0 310.36 336.01
  C 307.36 340.08 299.44 351.03 294.21 351.66
  A 1.48 1.47 84.9 0 1 292.56 350.28
  C 290.59 313.11 302.35 279.33 332.34 256.09
  C 346.64 245.00 375.51 232.11 391.79 246.45
  C 404.86 257.98 402.81 276.23 398.25 291.48
  Q 383.39 341.23 353.44 380.79
  C 349.37 386.17 345.84 391.20 340.88 395.87
  Q 340.06 396.64 339.86 397.76
  Q 337.12 413.22 334.77 428.73
  C 333.04 440.11 325.06 460.36 314.35 467.62
  A 0.86 0.85 43.5 0 1 313.41 467.64
  Q 312.14 466.85 311.37 465.11
  Q 308.10 457.73 311.98 451.17
  Q 322.42 433.55 327.26 413.82
  A 0.26 0.26 0.0 0 0 326.79 413.63
  Q 315.83 432.14 303.83 450.07
  Q 301.16 454.07 297.29 457.91
  A 1.44 1.44 0.0 0 1 295.19 457.83
  C 292.34 454.58 291.67 447.93 291.13 443.74
  Q 287.87 418.61 287.92 393.27
  Q 287.93 392.63 287.51 393.13
  Z
  M 321.90 286.14
  C 314.51 292.83 310.08 302.47 309.44 312.28
  A 0.73 0.72 54.9 0 0 310.86 312.53
  C 313.64 302.71 315.09 294.93 322.28 286.24
  A 0.07 0.06 32.3 0 0 322.25 286.14
  Q 322.21 286.12 322.17 286.11
  Q 322.02 286.03 321.90 286.14
  Z
  M 376.53 310.00
  Q 364.35 334.71 355.39 349.41
  Q 335.08 382.77 305.35 415.08
  Q 303.31 417.30 301.87 419.65
  A 0.57 0.57 0.0 0 0 302.51 420.50
  C 309.14 418.67 314.53 413.72 319.45 407.95
  Q 344.06 379.07 363.48 346.49
  Q 375.28 326.70 380.43 305.28
  Q 381.90 299.17 378.83 304.64
  C 378.16 305.83 377.35 308.33 376.53 310.00
  Z
  M 345.94 343.45
  C 348.25 338.82 349.95 334.13 351.20 329.33
  Q 353.08 322.07 349.61 328.71
  Q 332.97 360.53 305.49 388.50
  Q 303.35 390.68 302.20 393.14
  A 0.73 0.72 2.4 0 0 303.11 394.12
  C 311.06 391.20 315.32 386.63 321.60 379.51
  Q 336.12 363.08 345.94 343.45
  Z
  M 308.58 363.59
  L 296.30 376.85
  A 0.12 0.12 0.0 0 0 296.30 377.02
  L 296.33 377.05
  A 8.97 2.16 -47.2 0 0 304.01 371.94
  L 304.27 371.66
  A 8.97 2.16 -47.2 0 0 308.78 363.61
  L 308.75 363.58
  A 0.12 0.12 0.0 0 0 308.58 363.59
  Z"
/>
<path fill="#222021" d="
  M 406.64 211.78
  Q 406.71 216.06 403.05 218.02
  Q 402.56 218.28 402.12 217.95
  C 398.79 215.47 396.82 211.75 393.73 209.11
  A 1.12 1.11 40.1 0 0 392.15 209.24
  L 384.55 218.21
  Q 384.12 218.73 383.54 218.37
  Q 379.81 216.07 379.80 211.72
  Q 379.79 211.08 379.23 211.38
  C 373.77 214.29 370.05 212.09 369.75 205.97
  A 0.71 0.71 0.0 0 1 370.67 205.26
  L 376.63 207.12
  A 0.55 0.55 0.0 0 0 377.31 206.39
  C 373.95 198.03 367.01 194.08 358.86 191.18
  Q 351.55 188.59 351.27 188.45
  Q 344.79 185.22 340.37 179.24
  Q 340.06 178.82 340.58 178.83
  Q 350.01 179.03 357.48 180.99
  C 369.40 184.13 381.30 193.21 384.67 205.59
  Q 385.27 207.81 386.31 209.85
  Q 386.65 210.50 386.88 209.80
  C 388.90 203.69 388.16 198.24 384.40 192.80
  Q 379.45 185.64 372.20 181.68
  Q 370.34 180.67 372.30 179.87
  Q 393.76 171.16 415.11 180.11
  Q 417.28 181.02 415.11 181.93
  C 405.82 185.85 394.21 198.51 399.33 209.30
  Q 399.68 210.03 399.97 209.27
  C 402.72 201.79 404.56 196.30 410.99 190.81
  C 421.02 182.24 433.34 179.37 445.99 178.86
  A 0.26 0.26 0.0 0 1 446.20 179.29
  C 441.83 184.28 437.75 187.29 431.18 189.97
  C 421.84 193.77 413.63 196.30 408.82 206.01
  A 0.51 0.51 0.0 0 0 409.30 206.74
  Q 412.93 206.57 416.19 204.99
  A 0.92 0.92 0.0 0 1 417.50 205.87
  C 417.15 211.37 412.23 214.47 407.24 211.43
  A 0.40 0.39 -74.9 0 0 406.64 211.78
  Z"
/>
<path fill="#222021" d="
  M 398.43 229.43
  C 416.39 228.41 433.38 216.91 424.38 196.47
  Q 424.19 196.03 424.62 195.81
  L 429.99 193.11
  A 0.61 0.61 0.0 0 1 430.78 193.34
  Q 438.24 206.00 432.86 217.91
  C 426.13 232.82 408.25 237.62 393.64 239.50
  Q 393.13 239.56 392.74 239.25
  Q 384.17 232.57 373.43 232.97
  Q 370.96 233.06 369.23 232.29
  C 353.11 225.13 346.47 210.44 355.32 193.91
  Q 356.16 192.33 357.73 193.20
  L 361.50 195.29
  A 0.75 0.74 -68.3 0 1 361.86 196.14
  C 360.43 201.48 358.22 205.78 360.11 211.72
  Q 362.96 220.62 371.98 225.06
  Q 380.36 229.18 388.46 229.68
  Q 389.08 229.72 388.97 229.10
  C 388.40 226.01 389.51 217.70 394.00 219.20
  C 397.66 220.42 398.64 225.70 398.05 229.01
  Q 397.97 229.46 398.43 229.43
  Z"
/>
<path fill="#222021" d="
  M 362.19 235.73
  Q 348.43 239.19 335.53 245.75
  A 0.35 0.35 0.0 0 1 335.13 245.18
  Q 345.39 235.43 351.08 222.46
  A 0.40 0.40 0.0 0 1 351.80 222.44
  Q 355.99 230.54 364.00 234.80
  A 0.39 0.39 0.0 0 1 363.94 235.51
  C 363.39 235.70 362.74 235.59 362.19 235.73
  Z"
/>
<path fill="#222021" d="
  M 396.57 373.70
  Q 395.11 376.66 394.05 377.32
  Q 383.66 377.93 373.51 377.83
  Q 365.82 377.76 359.25 381.51
  Q 359.19 381.54 359.23 381.49
  Q 387.61 344.44 401.74 299.72
  C 407.66 281.01 412.79 262.26 399.23 245.04
  A 0.41 0.41 0.0 0 1 399.48 244.38
  C 412.23 242.18 423.76 237.56 431.61 226.82
  A 0.20 0.20 0.0 0 1 431.96 226.88
  C 438.63 248.77 436.11 275.51 422.70 294.44
  C 417.81 301.34 409.86 311.11 404.98 319.26
  Q 397.87 331.13 392.63 343.98
  C 389.99 350.46 387.57 357.11 391.29 363.62
  Q 394.11 368.57 396.57 373.70
  Z
  M 422.01 265.02
  C 420.66 271.23 418.01 276.37 414.10 281.50
  A 1.12 1.12 0.0 0 0 415.27 283.26
  C 423.39 281.10 423.13 271.50 422.32 265.03
  Q 422.21 264.13 422.01 265.02
  Z"
/>
<path fill="#f2f2f2" d="
  M 414.10 281.50
  C 418.01 276.37 420.66 271.23 422.01 265.02
  Q 422.21 264.13 422.32 265.03
  C 423.13 271.50 423.39 281.10 415.27 283.26
  A 1.12 1.12 0.0 0 1 414.10 281.50
  Z"
/>
<path fill="#f2f2f2" d="
  M 309.44 312.28
  C 310.08 302.47 314.51 292.83 321.90 286.14
  Q 322.02 286.03 322.17 286.11
  Q 322.21 286.12 322.25 286.14
  A 0.07 0.06 32.3 0 1 322.28 286.24
  C 315.09 294.93 313.64 302.71 310.86 312.53
  A 0.73 0.72 54.9 0 1 309.44 312.28
  Z"
/>
<path fill="#f2f2f2" d="
  M 376.53 310.00
  C 377.35 308.33 378.16 305.83 378.83 304.64
  Q 381.90 299.17 380.43 305.28
  Q 375.28 326.70 363.48 346.49
  Q 344.06 379.07 319.45 407.95
  C 314.53 413.72 309.14 418.67 302.51 420.50
  A 0.57 0.57 0.0 0 1 301.87 419.65
  Q 303.31 417.30 305.35 415.08
  Q 335.08 382.77 355.39 349.41
  Q 364.35 334.71 376.53 310.00
  Z"
/>
<path fill="#222021" d="
  M 446.42 356.32
  L 446.42 370.90
  Q 446.42 371.47 445.85 371.47
  L 437.97 371.49
  Q 437.44 371.49 437.43 370.96
  L 437.28 338.47
  Q 437.28 338.07 436.91 337.90
  C 426.59 333.15 426.47 318.53 436.99 313.76
  C 443.06 311.00 450.86 313.68 454.04 319.64
  C 457.92 326.91 454.48 334.78 447.08 338.09
  Q 446.49 338.36 446.49 339.00
  L 446.50 346.70
  A 0.73 0.73 0.0 0 0 447.20 347.43
  L 452.70 347.68
  Q 453.19 347.70 453.17 348.19
  L 453.00 355.14
  Q 452.98 355.76 452.36 355.77
  L 446.93 355.82
  Q 446.42 355.82 446.42 356.32
  Z
  M 447.09 325.78
  A 4.77 4.77 0.0 0 0 442.32 321.01
  A 4.77 4.77 0.0 0 0 437.55 325.78
  A 4.77 4.77 0.0 0 0 442.32 330.55
  A 4.77 4.77 0.0 0 0 447.09 325.78
  Z"
/>
<circle fill="#f2f2f2" cx="442.32" cy="325.78" r="4.77"/>
<path fill="#f2f2f2" d="
  M 345.94 343.45
  Q 336.12 363.08 321.60 379.51
  C 315.32 386.63 311.06 391.20 303.11 394.12
  A 0.73 0.72 2.4 0 1 302.20 393.14
  Q 303.35 390.68 305.49 388.50
  Q 332.97 360.53 349.61 328.71
  Q 353.08 322.07 351.20 329.33
  C 349.95 334.13 348.25 338.82 345.94 343.45
  Z"
/>
<path fill="#222021" d="
  M 422.90 387.34
  L 429.85 386.12
  Q 439.32 385.05 448.00 379.55
  Q 455.84 374.59 463.62 367.63
  C 478.31 354.48 487.32 345.95 501.28 338.12
  Q 503.36 336.95 505.74 337.07
  C 510.14 337.30 508.71 343.53 507.65 346.72
  Q 488.03 405.78 434.26 433.88
  C 405.15 449.10 370.55 453.66 338.12 448.84
  A 0.83 0.82 -77.3 0 1 337.46 447.78
  Q 341.92 433.70 342.86 418.99
  Q 343.13 414.67 346.53 399.73
  Q 347.04 397.50 348.47 395.99
  C 356.78 387.20 369.91 381.39 382.17 383.42
  C 386.73 384.17 391.10 382.12 395.49 383.05
  Q 409.04 385.91 422.99 389.35
  A 0.77 0.76 -74.1 0 0 423.90 388.84
  Q 424.19 387.98 422.90 387.34
  Z
  M 412.79 406.27
  Q 423.46 407.11 427.76 406.30
  C 454.56 401.26 480.11 380.09 493.34 356.15
  A 0.29 0.29 0.0 0 0 492.91 355.78
  C 488.29 359.31 484.11 362.60 479.75 366.82
  C 460.49 385.47 435.56 406.21 406.33 396.92
  Q 405.85 396.77 405.83 397.28
  C 405.55 404.41 406.28 409.34 399.31 413.82
  A 1.69 1.68 72.9 0 1 396.72 412.44
  L 396.28 394.46
  A 0.60 0.60 0.0 0 0 395.71 393.88
  L 390.78 393.65
  Q 390.28 393.62 390.27 394.12
  Q 390.10 402.56 390.00 411.01
  Q 389.98 412.62 389.41 414.36
  Q 389.25 414.85 388.76 414.67
  C 379.33 411.19 381.44 401.92 381.53 394.02
  Q 381.54 393.45 380.97 393.46
  L 375.77 393.58
  Q 375.14 393.59 375.13 394.23
  L 374.99 411.04
  A 1.91 1.90 -76.2 0 1 372.22 412.72
  C 365.44 409.29 365.83 403.30 365.67 396.52
  Q 365.66 395.86 365.06 396.15
  C 361.53 397.83 354.35 401.39 354.38 405.61
  Q 354.39 406.35 355.00 405.93
  L 357.62 404.08
  A 0.78 0.78 0.0 0 1 358.81 404.47
  C 361.86 413.49 370.28 420.26 379.98 415.46
  Q 380.45 415.23 380.85 415.55
  Q 386.35 419.97 392.78 418.49
  Q 395.56 417.84 397.70 417.70
  Q 408.38 416.95 412.13 406.69
  Q 412.30 406.23 412.79 406.27
  Z"
/>
<path fill="#f2f2f2" d="
  M 412.13 406.69
  Q 408.38 416.95 397.70 417.70
  Q 395.56 417.84 392.78 418.49
  Q 386.35 419.97 380.85 415.55
  Q 380.45 415.23 379.98 415.46
  C 370.28 420.26 361.86 413.49 358.81 404.47
  A 0.78 0.78 0.0 0 0 357.62 404.08
  L 355.00 405.93
  Q 354.39 406.35 354.38 405.61
  C 354.35 401.39 361.53 397.83 365.06 396.15
  Q 365.66 395.86 365.67 396.52
  C 365.83 403.30 365.44 409.29 372.22 412.72
  A 1.91 1.90 -76.2 0 0 374.99 411.04
  L 375.13 394.23
  Q 375.14 393.59 375.77 393.58
  L 380.97 393.46
  Q 381.54 393.45 381.53 394.02
  C 381.44 401.92 379.33 411.19 388.76 414.67
  Q 389.25 414.85 389.41 414.36
  Q 389.98 412.62 390.00 411.01
  Q 390.10 402.56 390.27 394.12
  Q 390.28 393.62 390.78 393.65
  L 395.71 393.88
  A 0.60 0.60 0.0 0 1 396.28 394.46
  L 396.72 412.44
  A 1.69 1.68 72.9 0 0 399.31 413.82
  C 406.28 409.34 405.55 404.41 405.83 397.28
  Q 405.85 396.77 406.33 396.92
  C 435.56 406.21 460.49 385.47 479.75 366.82
  C 484.11 362.60 488.29 359.31 492.91 355.78
  A 0.29 0.29 0.0 0 1 493.34 356.15
  C 480.11 380.09 454.56 401.26 427.76 406.30
  Q 423.46 407.11 412.79 406.27
  Q 412.30 406.23 412.13 406.69
  Z"
/>
<path fill="#f2f2f2" d="
  M 308.58 363.59
  A 0.12 0.12 0.0 0 1 308.75 363.58
  L 308.78 363.61
  A 8.97 2.16 -47.2 0 1 304.27 371.66
  L 304.01 371.94
  A 8.97 2.16 -47.2 0 1 296.33 377.05
  L 296.30 377.02
  A 0.12 0.12 0.0 0 1 296.30 376.85
  L 308.58 363.59
  Z"
/>
<path fill="#8e8e8e" d="
  M 429.85 386.12
  L 422.90 387.34
  Q 415.86 378.94 404.75 378.26
  Q 397.13 377.79 394.05 377.32
  Q 395.11 376.66 396.57 373.70
  Q 403.62 371.57 408.75 371.88
  Q 423.29 372.78 429.85 386.12
  Z"
/>
<path fill="#222021" d="
  M 284.5346 531.8183
  A 25.57 25.18 -4.4 0 1 260.9718 558.8858
  A 25.57 25.18 -4.4 0 1 233.5454 535.7417
  A 25.57 25.18 -4.4 0 1 257.1082 508.6742
  A 25.57 25.18 -4.4 0 1 284.5346 531.8183
  Z
  M 273.38 533.71
  A 14.34 14.34 0.0 0 0 259.04 519.37
  A 14.34 14.34 0.0 0 0 244.70 533.71
  A 14.34 14.34 0.0 0 0 259.04 548.05
  A 14.34 14.34 0.0 0 0 273.38 533.71
  Z"
/>
<path fill="#222021" d="
  M 311.14 523.40
  C 305.73 528.32 305.16 536.59 309.71 542.29
  C 316.46 550.75 328.16 549.27 334.03 540.71
  A 0.61 0.61 0.0 0 1 334.92 540.59
  L 341.35 545.89
  A 0.68 0.68 0.0 0 1 341.48 546.79
  C 323.99 573.57 285.31 551.10 297.85 523.30
  C 305.79 505.70 332.07 502.74 341.17 521.08
  Q 341.37 521.50 340.99 521.76
  L 334.51 526.09
  A 0.49 0.48 53.6 0 1 333.86 525.99
  C 328.03 518.72 318.15 517.02 311.14 523.40
  Z"
/>
<path fill="#222021" d="
  M 400.70 537.49
  C 400.61 550.28 421.71 552.37 421.72 536.00
  Q 421.72 523.29 421.96 510.57
  Q 421.97 510.06 422.49 510.06
  L 432.03 509.96
  A 0.56 0.56 0.0 0 1 432.59 510.52
  Q 432.60 523.52 432.52 536.49
  Q 432.48 542.81 431.10 546.19
  C 424.23 563.01 397.93 562.85 391.14 545.72
  Q 389.77 542.27 389.73 536.11
  Q 389.65 523.27 389.76 510.45
  A 0.47 0.47 0.0 0 1 390.23 509.98
  L 400.25 510.00
  Q 400.74 510.00 400.74 510.49
  Q 400.80 524.04 400.70 537.49
  Z"
/>
<path fill="#222021" d="
  M 519.94 549.55
  L 516.04 557.68
  A 0.65 0.65 0.0 0 1 515.45 558.05
  L 505.25 558.01
  A 0.65 0.65 0.0 0 1 504.67 557.09
  L 526.78 510.22
  A 0.65 0.65 0.0 0 1 527.37 509.85
  L 535.70 509.83
  A 0.65 0.65 0.0 0 1 536.29 510.21
  L 557.78 556.99
  A 0.65 0.65 0.0 0 1 557.19 557.91
  L 547.18 557.96
  A 0.65 0.65 0.0 0 1 546.59 557.59
  L 542.67 549.34
  A 0.65 0.65 0.0 0 0 542.08 548.97
  L 520.52 549.19
  A 0.65 0.65 0.0 0 0 519.94 549.55
  Z
  M 525.48 538.27
  A 0.38 0.38 0.0 0 0 525.83 538.80
  L 537.18 538.64
  A 0.38 0.38 0.0 0 0 537.52 538.10
  L 531.67 525.45
  A 0.38 0.38 0.0 0 0 530.97 525.46
  L 525.48 538.27
  Z"
/>
<path fill="#222021" d="
  M 183.16 557.90
  L 173.42 557.84
  A 0.44 0.44 0.0 0 1 172.98 557.40
  L 172.96 510.46
  A 0.44 0.44 0.0 0 1 173.40 510.02
  L 182.16 509.98
  A 0.44 0.44 0.0 0 1 182.50 510.15
  L 204.42 537.44
  A 0.44 0.44 0.0 0 0 205.20 537.16
  L 205.27 510.44
  A 0.44 0.44 0.0 0 1 205.71 510.00
  L 215.82 510.01
  A 0.44 0.44 0.0 0 1 216.26 510.45
  L 216.16 557.57
  A 0.44 0.44 0.0 0 1 215.72 558.01
  L 206.63 558.05
  A 0.44 0.44 0.0 0 1 206.29 557.89
  L 184.43 530.88
  A 0.44 0.44 0.0 0 0 183.65 531.16
  L 183.60 557.46
  A 0.44 0.44 0.0 0 1 183.16 557.90
  Z"
/>
<path fill="#222021" d="
  M 355.90 520.15
  L 343.35 520.20
  A 0.51 0.51 0.0 0 1 342.83 519.69
  L 342.74 510.53
  A 0.51 0.51 0.0 0 1 343.25 510.01
  L 380.59 509.99
  A 0.51 0.51 0.0 0 1 381.10 510.51
  L 380.94 519.52
  A 0.51 0.51 0.0 0 1 380.43 520.02
  L 367.92 520.10
  A 0.51 0.51 0.0 0 0 367.42 520.60
  L 367.25 557.39
  A 0.51 0.51 0.0 0 1 366.75 557.89
  L 357.03 557.95
  A 0.51 0.51 0.0 0 1 356.52 557.44
  L 356.41 520.66
  A 0.51 0.51 0.0 0 0 355.90 520.15
  Z"
/>
<path fill="#222021" d="
  M 456.92 544.17
  L 457.00 557.22
  A 0.72 0.72 0.0 0 1 456.28 557.94
  L 447.20 557.87
  Q 446.04 557.86 446.04 556.70
  L 446.03 510.76
  Q 446.03 510.15 446.64 510.13
  Q 463.16 509.67 469.00 509.95
  C 485.26 510.71 489.56 535.39 474.56 541.84
  A 0.66 0.66 0.0 0 0 474.31 542.86
  L 485.97 557.15
  A 0.50 0.49 70.3 0 1 485.59 557.96
  L 474.13 557.98
  A 2.20 2.19 71.4 0 1 472.38 557.11
  Q 468.17 551.52 463.52 545.80
  C 461.75 543.62 460.10 543.25 457.47 543.54
  Q 456.91 543.60 456.92 544.17
  Z
  M 456.92 520.59
  L 456.92 532.83
  A 0.52 0.52 0.0 0 0 457.44 533.35
  L 466.40 533.35
  A 6.14 6.10 0.0 0 0 472.54 527.25
  L 472.54 526.17
  A 6.14 6.10 -0.0 0 0 466.40 520.07
  L 457.44 520.07
  A 0.52 0.52 0.0 0 0 456.92 520.59
  Z"
/>
<circle fill="#f2f2f2" cx="259.04" cy="533.71" r="14.34"/>
<path fill="#f2f2f2" d="
  M 456.92 520.59
  A 0.52 0.52 0.0 0 1 457.44 520.07
  L 466.40 520.07
  A 6.14 6.10 -0.0 0 1 472.54 526.17
  L 472.54 527.25
  A 6.14 6.10 -0.0 0 1 466.40 533.35
  L 457.44 533.35
  A 0.52 0.52 0.0 0 1 456.92 532.83
  L 456.92 520.59
  Z"
/>
<path fill="#f2f2f2" d="
  M 525.48 538.27
  L 530.97 525.46
  A 0.38 0.38 0.0 0 1 531.67 525.45
  L 537.52 538.10
  A 0.38 0.38 0.0 0 1 537.18 538.64
  L 525.83 538.80
  A 0.38 0.38 0.0 0 1 525.48 538.27
  Z"
/>
</svg>
